HIERARCHY
ROOT Hips
{
	OFFSET 0.000000 0.000000 0.000000
	CHANNELS 6 Xposition Yposition Zposition Zrotation Yrotation Xrotation 
	JOINT LHipJoint
	{
		OFFSET 0.000000 0.000000 0.000000
		CHANNELS 3 Zrotation Yrotation Xrotation
		JOINT LeftUpLeg
		{
			OFFSET 1.363060 -1.794630 0.839290
			CHANNELS 3 Zrotation Yrotation Xrotation
			JOINT LeftLeg
			{
				OFFSET 2.448110 -6.726130 0.000000
				CHANNELS 3 Zrotation Yrotation Xrotation
				JOINT LeftFoot
				{
					OFFSET 2.562200 -7.039590 0.000000
					CHANNELS 3 Zrotation Yrotation Xrotation
					JOINT LeftToeBase
					{
						OFFSET 0.157640 -0.433110 2.322550
						CHANNELS 3 Zrotation Yrotation Xrotation
						End Site
						{
							OFFSET 0.000000 0.000000 0.000000
						}
					}
				}
			}
		}
	}
	JOINT RHipJoint
	{
		OFFSET 0.000000 0.000000 0.000000
		CHANNELS 3 Zrotation Yrotation Xrotation
		JOINT RightUpLeg
		{
			OFFSET -1.305520 -1.794630 0.839290
			CHANNELS 3 Zrotation Yrotation Xrotation
			JOINT RightLeg
			{
				OFFSET -2.542530 -6.985550 0.000000
				CHANNELS 3 Zrotation Yrotation Xrotation
				JOINT RightFoot
				{
					OFFSET -2.568260 -7.056230 0.000000
					CHANNELS 3 Zrotation Yrotation Xrotation
					JOINT RightToeBase
					{
						OFFSET -0.164730 -0.452590 2.363150
						CHANNELS 3 Zrotation Yrotation Xrotation
						End Site
						{
							OFFSET 0.000000 0.000000 0.000000
						}
					}
				}
			}
		}
	}
	JOINT LowerBack
	{
		OFFSET 0.000000 0.000000 0.000000
		CHANNELS 3 Zrotation Yrotation Xrotation
		JOINT Spine
		{
			OFFSET 0.028270 2.035590 -0.193380
			CHANNELS 3 Zrotation Yrotation Xrotation
			JOINT Spine1
			{
				OFFSET 0.056720 2.048850 -0.042750
				CHANNELS 3 Zrotation Yrotation Xrotation
				JOINT Neck
				{
					OFFSET 0.000000 0.000000 0.000000
					CHANNELS 3 Zrotation Yrotation Xrotation
					JOINT Neck1
					{
						OFFSET -0.054170 1.746240 0.172020
						CHANNELS 3 Zrotation Yrotation Xrotation
						JOINT Head
						{
							OFFSET 0.104070 1.761360 -0.123970
							CHANNELS 3 Zrotation Yrotation Xrotation
							End Site
							{
								OFFSET 0.000000 0.000000 0.000000
							}
						}
					}
				}
				JOINT LeftShoulder
				{
					OFFSET 0.000000 0.000000 0.000000
					CHANNELS 3 Zrotation Yrotation Xrotation
					JOINT LeftArm
					{
						OFFSET 3.362410 1.200890 -0.311210
						CHANNELS 3 Zrotation Yrotation Xrotation
						JOINT LeftForeArm
						{
							OFFSET 4.983000 -0.000000 -0.000000
							CHANNELS 3 Zrotation Yrotation Xrotation
							JOINT LeftHand
							{
								OFFSET 3.483560 -0.000000 -0.000000
								CHANNELS 3 Zrotation Yrotation Xrotation
								JOINT LeftFingerBase
								{
									OFFSET 0.000000 0.000000 0.000000
									CHANNELS 3 Zrotation Yrotation Xrotation
									JOINT LeftHandIndex1
									{
										OFFSET 0.715260 -0.000000 -0.000000
										CHANNELS 3 Zrotation Yrotation Xrotation
										End Site
										{
											OFFSET 0.000000 0.000000 0.000000
										}
									}
								}
								JOINT LThumb
								{
									OFFSET 0.000000 0.000000 0.000000
									CHANNELS 3 Zrotation Yrotation Xrotation
									End Site
									{
										OFFSET 0.000000 0.000000 0.000000
									}
								}
							}
						}
					}
				}
				JOINT RightShoulder
				{
					OFFSET 0.000000 0.000000 0.000000
					CHANNELS 3 Zrotation Yrotation Xrotation
					JOINT RightArm
					{
						OFFSET -3.136600 1.374050 -0.404650
						CHANNELS 3 Zrotation Yrotation Xrotation
						JOINT RightForeArm
						{
							OFFSET -5.241900 -0.000000 -0.000000
							CHANNELS 3 Zrotation Yrotation Xrotation
							JOINT RightHand
							{
								OFFSET -3.444170 -0.000000 -0.000000
								CHANNELS 3 Zrotation Yrotation Xrotation
								JOINT RightFingerBase
								{
									OFFSET 0.000000 0.000000 0.000000
									CHANNELS 3 Zrotation Yrotation Xrotation
									JOINT RightHandIndex1
									{
										OFFSET -0.622530 -0.000000 -0.000000
										CHANNELS 3 Zrotation Yrotation Xrotation
										End Site
										{
											OFFSET 0.000000 0.000000 0.000000
										}
									}
								}
								JOINT RThumb
								{
									OFFSET 0.000000 0.000000 0.000000
									CHANNELS 3 Zrotation Yrotation Xrotation
									End Site
									{
										OFFSET 0.000000 0.000000 0.000000
									}
								}
							}
						}
					}
				}
			}
		}
	}
}
MOTION
Frames: 5
Frame Time: 0.008333
12.695037 17.823621 -18.684218 7.800980 0.233509 3.446655 -7.397330 1.210505 4.136184 -20.670625 -4.716834 -5.631384 0.313004 6.288194 19.238598 0.571967 -1.176219 1.567066 0.668700 -5.229300 -14.563700 3.320329 -1.109357 1.347515 3.865584 9.748541 -28.638614 -3.750411 -11.081104 34.414779 1.676486 -11.377570 -5.849616 -0.045900 -1.383100 3.803700 -6.630539 -0.416086 -0.134604 -0.545985 -0.609771 0.904019 0.109625 -0.773397 -0.000706 -4.231144 -2.008740 -17.324564 0.975924 -1.998113 16.822791 0.280700 -1.145900 9.705100 -3.366337 -3.099599 0.161748 -84.502339 -6.517909 30.080516 26.429636 -31.094116 -8.860555 -0.511622 -2.347865 -15.441341 27.891719 19.115557 11.398000 -7.125000 0.000000 0.000000 0.372500 54.007000 0.082500 1.571462 2.371726 0.120527 88.611787 -3.307076 8.508391 -16.703999 24.368045 -3.828351 0.545413 -0.788161 -1.205213 -16.340622 28.508498 -8.429100 7.125000 0.000000 0.000000 8.096200 0.096900 8.192000 
12.687958 17.851443 -18.526727 8.059273 0.514956 3.706550 -7.448539 1.244137 4.217424 -20.827433 -4.698031 -4.780206 0.153873 5.883705 18.034560 0.526354 -0.955048 2.090805 0.792100 -5.681100 -15.861900 3.385058 -1.124660 1.287176 3.220211 10.496254 -28.498149 -3.210126 -10.322658 31.734044 1.914334 -12.447584 -4.608459 -0.005900 -0.496200 1.363500 -6.786172 -0.414820 -0.397622 -0.689215 -0.651575 0.281168 0.062930 -0.753616 -0.545383 -3.692576 -1.866669 -14.632466 0.483715 -2.059531 15.963621 0.018100 -1.183900 8.850000 -3.255730 -3.015416 0.148423 -84.470237 -5.292950 30.696707 27.513287 -32.305593 -9.666035 -0.448340 -2.357534 -15.872297 28.273180 19.212037 11.618600 -7.125000 0.000000 0.000000 0.707900 54.218200 0.160400 1.563513 2.226072 0.090408 88.747149 -4.657624 8.759930 -16.943820 24.717831 -3.946827 0.561550 -0.762043 -2.038655 -16.341020 28.316707 -8.377500 7.125000 0.000000 0.000000 8.072100 -0.113900 8.137300 
12.682650 17.855670 -18.364518 8.273951 0.773203 3.896773 -7.489574 1.307644 4.338843 -20.960101 -4.554983 -3.858162 0.012232 5.497308 16.882162 0.537779 -0.986051 2.535115 0.690700 -5.313100 -14.803800 3.453782 -1.132329 1.231798 2.520127 11.566305 -28.154506 -2.693205 -9.536129 29.133047 2.108402 -13.348839 -5.612148 -0.061900 -1.605300 4.416000 -6.959966 -0.793364 -0.267099 -0.504913 -1.144182 0.360325 0.372751 -1.023046 -0.400638 -4.755715 -1.978137 -16.404425 1.067415 -1.898487 16.980784 0.417600 -1.133900 9.594000 -3.227091 -3.051890 0.157413 -84.688177 -5.934520 30.124892 28.514535 -33.283371 -10.343472 -0.413626 -2.372606 -16.431331 28.777611 19.318887 11.915300 -7.125000 0.000000 0.000000 1.213800 54.464400 0.282300 1.519697 2.310294 0.110505 88.225030 -3.933475 9.367487 -17.031588 24.831852 -3.986740 0.561334 -0.766474 -2.064677 -16.424347 28.510946 -8.472100 7.125000 0.000000 0.000000 8.043600 0.099700 8.138100 
12.677931 17.854982 -18.196311 8.549630 0.952303 4.097282 -7.520196 1.342742 4.439785 -21.184600 -4.155175 -3.048004 -0.106748 5.122824 15.795689 0.560649 -1.074704 3.090431 0.735100 -5.477600 -15.275900 3.519380 -1.145343 1.163310 1.745388 12.625501 -27.742002 -2.196082 -8.705336 26.435451 2.345900 -14.425392 -6.169387 -0.040500 -1.299700 3.573800 -7.181276 -0.722225 -0.576645 -0.638047 -1.063071 0.001141 0.392894 -0.970735 -0.623806 -5.019347 -2.192797 -15.185341 1.450964 -2.281487 17.187780 0.576200 -1.290200 9.445700 -3.152827 -3.003513 0.156698 -84.489130 -5.500747 31.074345 29.378036 -34.158631 -11.017820 -0.365162 -2.361960 -17.024091 29.063698 19.060213 11.905400 -7.125000 0.000000 0.000000 1.545100 54.236600 0.350800 1.494081 2.261186 0.096994 88.469787 -4.674155 8.823074 -17.297776 25.217535 -4.114402 0.568478 -0.773124 -2.108836 -16.605444 28.979700 -8.694300 7.125000 0.000000 0.000000 7.982800 0.608000 8.146200 
12.667903 17.864420 -18.034003 8.633602 1.020298 4.283117 -7.552154 1.404124 4.552081 -21.161686 -3.978226 -2.265174 -0.224547 4.753993 14.706422 0.540749 -0.936635 3.830193 0.695200 -5.330000 -14.852200 3.588792 -1.169891 1.107660 1.146827 13.941828 -27.293535 -1.752030 -7.856701 23.851731 2.442348 -14.795257 -7.019640 -0.075200 -1.769600 4.869400 -7.381573 -1.020874 -0.867928 -0.379926 -1.403709 0.354892 0.772018 -1.191914 0.009030 -5.391340 -2.084618 -16.905861 1.385600 -1.886650 17.666322 0.649800 -1.148300 9.966400 -3.126614 -3.116717 0.188298 -84.465646 -6.692821 30.724860 30.135239 -34.834899 -11.536351 -0.358555 -2.338722 -17.261343 29.538404 18.663433 11.907400 -7.125000 0.000000 0.000000 2.128200 53.876000 0.464600 1.463969 2.346921 0.115022 87.790022 -3.363305 9.804524 -17.262798 25.149726 -4.091484 0.581584 -0.776896 -2.529012 -16.936164 29.191944 -8.931900 7.125000 0.000000 0.000000 7.810300 0.886500 8.004600 
